<?xml version="1.0" standalone="no"?>
<!DOCTYPE svg PUBLIC "-//W3C//DTD SVG 20010904//EN"
 "http://www.w3.org/TR/2001/REC-SVG-20010904/DTD/svg10.dtd">
<svg version="1.0" xmlns="http://www.w3.org/2000/svg"
 width="245.000000pt" height="256.000000pt" viewBox="0 0 245.000000 256.000000"
 preserveAspectRatio="xMidYMid meet">

<g transform="translate(0.000000,256.000000) scale(0.100000,-0.100000)"
fill="#000000" stroke="none">
<path d="M871 2535 c-116 -33 -223 -115 -269 -207 -18 -36 -33 -51 -75 -72
-90 -45 -127 -88 -127 -147 0 -64 72 -127 186 -166 27 -9 50 -17 52 -18 2 -2
-9 -31 -23 -65 -40 -94 -82 -218 -100 -290 -37 -150 -26 -133 -143 -212 -162
-108 -271 -196 -278 -223 -6 -25 33 -106 59 -122 7 -4 -9 -13 -43 -23 -62 -18
-86 -48 -96 -122 -9 -62 21 -127 77 -167 48 -35 77 -38 159 -16 90 24 90 24
90 -46 0 -131 36 -192 112 -192 46 0 88 17 213 88 44 24 116 57 160 72 68 24
96 28 190 28 102 0 115 -2 175 -31 36 -17 93 -50 126 -72 116 -80 199 -101
263 -67 56 28 66 70 66 266 l0 176 35 26 c19 14 60 47 90 74 l56 48 187 44
c103 24 191 40 195 36 12 -12 3 -338 -13 -476 -24 -211 -20 -215 58 -62 150
293 216 641 163 858 -56 231 -275 494 -535 642 -75 43 -101 51 -101 34 0 -6
35 -61 79 -123 144 -206 296 -495 268 -509 -7 -3 -109 -30 -227 -59 l-215 -53
-99 59 -98 59 -58 145 c-32 80 -72 174 -89 210 l-31 65 78 36 c79 37 136 88
148 133 13 55 -47 126 -144 170 -32 14 -49 32 -73 75 -46 80 -126 155 -196
181 -75 28 -182 35 -252 15z m73 -27 c-5 -7 -26 -36 -49 -64 -22 -28 -55 -71
-72 -97 -18 -26 -47 -54 -65 -61 -18 -8 -63 -28 -100 -45 -38 -16 -68 -26 -68
-21 0 5 9 33 20 63 24 63 74 125 137 169 70 47 217 89 197 56z m-72 -217 c-29
-10 -64 -29 -77 -41 -27 -26 -32 -21 -13 13 19 36 40 46 93 46 l50 0 -53 -18z
m161 -54 c108 -82 50 -235 -91 -244 -105 -7 -178 58 -169 150 4 50 22 77 72
109 45 29 141 21 188 -15z m-473 -41 c0 -49 18 -68 100 -105 37 -16 40 -20 22
-25 -12 -4 -34 -27 -49 -51 -15 -24 -34 -44 -42 -45 -28 0 -127 61 -148 93
-27 39 -29 64 -7 96 16 22 100 81 116 81 4 0 8 -20 8 -44z m1405 -181 c50 -35
128 -103 175 -151 127 -132 193 -235 236 -369 l22 -70 -91 -26 c-51 -14 -95
-23 -99 -20 -3 3 -15 38 -27 76 -32 109 -150 336 -255 494 -53 78 -96 145 -96
147 0 8 44 -18 135 -81z m-1035 -267 c-167 -106 -220 -138 -220 -133 0 30 72
111 120 136 38 19 102 38 135 38 27 1 24 -3 -35 -41z m508 -173 c6 -5 59 -167
66 -202 7 -30 6 -32 -31 -42 -272 -72 -851 -211 -878 -211 -19 0 -35 -4 -35
-9 0 -7 -112 -41 -133 -41 -5 0 20 119 52 250 11 41 22 91 25 111 6 33 13 40
75 73 38 20 73 36 79 36 5 0 12 -18 15 -41 11 -81 85 -156 192 -194 73 -27
203 -25 276 3 113 45 188 146 175 238 -3 23 -3 44 0 46 4 5 115 -10 122 -17z
m722 -150 c7 -25 10 -48 8 -51 -3 -3 -153 -32 -332 -66 l-327 -60 -26 26 c-19
19 -22 27 -12 31 29 10 645 163 660 164 11 1 20 -14 29 -44z m-798 -176 c-4
-28 -7 -30 -31 -24 -14 4 -44 9 -66 12 l-40 6 65 18 c36 9 68 18 71 18 3 1 3
-13 1 -30z m-172 -36 c-20 -26 -37 -31 -273 -74 -222 -41 -293 -51 -246 -35
17 6 520 134 532 135 5 1 -1 -11 -13 -26z m-807 -20 c24 -57 28 -79 22 -106
-6 -21 -17 -28 -70 -41 -91 -23 -99 -21 -130 24 l-28 41 34 35 c32 33 120 84
144 84 7 0 19 -17 28 -37z m1001 -284 c60 -33 126 -41 198 -26 l36 8 7 -77 c4
-42 5 -118 3 -168 -8 -142 -38 -183 -129 -173 -53 7 -106 31 -192 89 -32 22
-84 52 -115 66 -52 25 -67 27 -182 26 -116 0 -131 -2 -211 -32 -47 -18 -131
-58 -185 -89 -113 -65 -186 -81 -215 -47 -26 30 -39 82 -39 154 0 83 17 96 64
52 48 -45 75 -56 146 -56 94 0 183 45 272 135 l66 69 204 49 c111 27 206 49
209 50 3 0 31 -13 63 -30z"/>
<path d="M493 410 c-23 -14 -34 -29 -39 -56 -10 -56 15 -98 78 -130 68 -34 78
-42 71 -60 -8 -20 -40 -17 -60 6 -12 14 -30 20 -56 20 l-38 0 3 -53 c3 -49 5
-52 31 -55 16 -2 34 1 41 7 9 7 21 7 42 -1 74 -27 149 21 149 97 0 53 -20 77
-97 116 -57 29 -73 54 -42 66 8 3 25 -4 38 -16 14 -14 35 -21 60 -21 l37 0 -3
48 c-3 45 -4 47 -37 50 -19 2 -37 -2 -41 -8 -6 -9 -13 -9 -28 -1 -31 17 -73
13 -109 -9z"/>
<path d="M745 350 l0 -70 35 0 35 0 0 70 0 70 -35 0 -35 0 0 -70z"/>
<path d="M830 405 c0 -8 5 -15 10 -15 6 0 10 -15 10 -34 0 -19 -4 -38 -10 -41
-5 -3 -10 -13 -10 -21 0 -11 16 -14 70 -14 l70 0 0 30 c0 20 -5 30 -15 30 -8
0 -15 -7 -15 -16 0 -9 -7 -14 -17 -12 -13 2 -19 14 -21 41 -2 21 1 37 7 37 6
0 11 7 11 15 0 11 -12 15 -45 15 -33 0 -45 -4 -45 -15z"/>
<path d="M994 350 l0 -70 63 0 c61 0 63 1 63 25 0 27 -18 33 -38 13 -9 -9 -15
-9 -24 0 -9 9 -7 13 5 18 21 8 22 34 2 34 -8 0 -15 5 -15 11 0 7 12 9 35 5 31
-6 35 -4 35 14 0 18 -6 20 -62 20 l-63 0 -1 -70z"/>
<path d="M1157 413 c-18 -17 -6 -55 23 -71 32 -18 39 -32 15 -32 -8 0 -15 5
-15 10 0 6 -7 10 -15 10 -9 0 -15 -9 -15 -24 0 -21 5 -24 44 -24 27 -1 49 4
56 13 19 23 4 61 -30 75 -16 7 -30 16 -30 21 0 13 28 11 32 -3 6 -16 38 -2 38
17 0 11 -12 15 -48 15 -27 0 -52 -3 -55 -7z"/>
<path d="M1285 350 l0 -70 35 0 35 0 0 70 0 70 -35 0 -35 0 0 -70z"/>
<path d="M1402 391 c1 -15 -6 -43 -16 -61 -22 -45 -21 -50 15 -50 28 0 31 2
25 25 -5 21 -3 25 14 25 17 0 19 -4 14 -25 -6 -24 -4 -25 35 -25 46 0 48 3 25
50 -10 18 -17 46 -16 61 1 28 -1 29 -48 29 -47 0 -49 -1 -48 -29z m44 -38
c-10 -10 -19 5 -10 18 6 11 8 11 12 0 2 -7 1 -15 -2 -18z"/>
<path d="M1333 240 c-45 -18 -57 -86 -23 -120 27 -27 93 -27 121 1 26 26 21
53 -10 57 -30 5 -52 -15 -31 -28 12 -8 12 -10 -2 -15 -25 -10 -38 3 -38 36 0
34 23 48 51 31 28 -18 39 -14 39 13 0 19 -5 25 -22 25 -13 0 -32 2 -43 5 -11
2 -30 0 -42 -5z"/>
<path d="M828 165 c3 -52 1 -75 -7 -75 -6 0 -11 -7 -11 -15 0 -22 57 -20 68 3
5 9 12 50 14 90 l5 72 -37 0 -37 0 5 -75z"/>
<path d="M1024 218 c3 -13 6 -37 6 -55 0 -41 23 -63 64 -63 43 0 52 13 59 83
5 55 5 57 -18 57 -21 0 -23 -4 -21 -51 1 -34 -3 -53 -11 -56 -10 -3 -13 11
-13 51 l0 56 -36 0 c-33 0 -36 -2 -30 -22z"/>
</g>
</svg>
