<?xml version="1.0" standalone="no"?>
<!DOCTYPE svg PUBLIC "-//W3C//DTD SVG 20010904//EN"
 "http://www.w3.org/TR/2001/REC-SVG-20010904/DTD/svg10.dtd">
<svg version="1.0" xmlns="http://www.w3.org/2000/svg"
 width="245.000000pt" height="256.000000pt" viewBox="0 0 245.000000 256.000000"
 preserveAspectRatio="xMidYMid meet">
<metadata>
Created by potrace 1.10, written by Peter Selinger 2001-2011
</metadata>
<g transform="translate(0.000000,256.000000) scale(0.100000,-0.100000)"
fill="#000000" stroke="none">
<path d="M871 2535 c-117 -33 -223 -115 -269 -208 -18 -35 -33 -51 -60 -63
-132 -55 -180 -150 -113 -227 33 -37 105 -79 169 -98 23 -7 42 -16 42 -21 0
-5 -8 -25 -19 -46 -26 -51 -86 -224 -106 -302 -38 -150 -28 -135 -128 -202
-132 -88 -276 -198 -287 -219 -16 -29 -12 -44 24 -97 l34 -51 -50 -11 c-38
-10 -54 -20 -69 -43 -59 -99 -15 -226 95 -272 24 -10 43 -9 117 10 l89 23 0
-72 c0 -186 75 -236 226 -153 231 126 346 163 480 154 92 -5 153 -29 254 -97
94 -64 157 -90 218 -90 46 0 58 4 82 28 44 45 53 96 48 274 l-5 157 36 24 c20
13 61 46 91 74 53 47 60 50 175 76 66 15 152 36 191 45 l71 18 6 -62 c7 -75
-9 -374 -26 -501 -19 -131 -2 -123 77 39 171 350 216 681 125 919 -62 163
-213 348 -389 478 -92 68 -216 136 -224 122 -3 -4 23 -48 57 -97 173 -247 329
-538 294 -549 -7 -2 -109 -27 -227 -56 l-215 -52 -90 52 c-49 29 -94 56 -98
60 -4 4 -29 62 -56 127 -27 66 -67 160 -90 208 -39 85 -43 106 -18 106 29 0
135 60 164 94 43 48 49 76 27 121 -19 42 -61 76 -126 105 -37 16 -52 31 -78
77 -47 82 -127 157 -197 183 -75 28 -182 35 -252 15z m235 -32 c73 -25 168
-124 223 -235 37 -72 42 -90 32 -102 -17 -20 -154 -72 -212 -81 l-45 -7 4 36
c6 49 -3 79 -34 116 -38 44 -81 63 -144 63 -65 0 -105 -18 -149 -68 -26 -30
-31 -44 -31 -85 0 -28 -2 -50 -4 -50 -16 0 -98 36 -130 56 -37 25 -38 28 -32
67 14 83 79 181 160 240 16 11 54 31 85 43 70 29 202 33 277 7z m-96 -251 c75
-37 102 -127 58 -192 -85 -124 -298 -73 -298 72 0 107 133 174 240 120z m-447
-49 l-5 -48 54 -32 c29 -17 73 -37 98 -43 31 -8 54 -23 74 -47 37 -44 81 -63
146 -63 57 0 113 24 147 64 13 14 33 26 46 26 35 0 124 28 200 63 74 33 74 33
51 106 l-7 24 43 -24 c55 -31 100 -83 100 -116 0 -80 -160 -168 -356 -194
-128 -17 -377 -6 -477 20 -208 55 -300 143 -235 226 20 25 103 85 118 85 4 0
5 -21 3 -47z m1448 -219 c89 -68 240 -234 292 -321 26 -44 60 -113 75 -154 24
-68 26 -86 27 -234 0 -121 -4 -179 -18 -240 -30 -128 -84 -283 -132 -380 -41
-82 -44 -86 -41 -50 3 22 10 127 17 232 19 279 -2 471 -72 668 -51 146 -165
353 -283 518 -31 42 -56 79 -56 82 0 8 132 -75 191 -121z m-683 -191 c67 -157
67 -157 15 -161 -34 -3 -42 0 -48 16 -11 37 -65 102 -104 126 -91 58 -203 68
-329 31 -66 -20 -143 -89 -178 -161 -20 -41 -37 -60 -65 -75 -48 -24 -59 -24
-59 0 0 29 37 145 78 244 l37 89 100 -8 c126 -9 313 -7 385 5 121 19 110 26
168 -106z m-190 -23 c54 -24 75 -41 113 -94 25 -33 29 -48 29 -103 0 -135 -91
-224 -262 -253 -61 -11 -75 -10 -138 9 -186 57 -248 237 -128 368 87 94 263
127 386 73z m263 -185 c36 -7 36 -7 77 -123 22 -64 40 -117 39 -118 -10 -9
-900 -226 -924 -225 -18 0 -33 -3 -33 -8 0 -8 -129 -45 -136 -39 -8 9 92 394
105 403 8 6 42 24 75 42 l61 32 7 -44 c17 -116 126 -201 273 -212 85 -7 168
14 233 58 46 31 57 35 46 18 -3 -6 5 -4 19 6 14 9 28 23 31 31 8 21 -3 17 -26
-8 -23 -27 -13 -8 25 49 19 28 30 59 34 97 6 55 7 57 32 52 14 -3 42 -8 62
-11z m761 -157 c17 -55 32 -130 43 -210 5 -39 3 -47 -12 -51 -62 -18 -341 -77
-407 -87 -44 -6 -85 -14 -93 -17 -23 -9 -15 33 12 60 14 13 39 30 55 37 38 16
38 23 -2 52 -62 43 -136 23 -183 -50 -11 -17 -23 -31 -27 -32 -4 0 -15 25 -25
57 -10 31 -31 69 -47 85 -15 16 -27 30 -25 32 2 1 157 41 344 88 187 47 343
86 346 86 3 1 13 -22 21 -50z m-582 -28 c22 -17 23 -19 7 -25 -19 -8 -47 10
-47 31 0 19 10 17 40 -6z m-1150 -109 c-7 -28 -15 -51 -19 -51 -4 0 -24 9 -45
19 l-37 20 52 35 c29 19 55 34 57 31 2 -2 -1 -27 -8 -54z m940 -35 c0 -13 7
-40 15 -60 21 -51 8 -65 -20 -23 -25 36 -78 67 -114 67 -12 0 -33 -11 -47 -25
-31 -31 -22 -51 41 -95 54 -37 58 -25 10 29 -32 36 -34 40 -19 49 22 12 50 2
105 -38 35 -25 45 -28 56 -17 15 15 19 51 8 89 -5 21 -3 29 9 34 23 9 43 -11
73 -70 26 -53 51 -86 64 -86 4 0 28 20 53 45 37 35 54 45 81 45 47 0 52 -16
15 -50 -25 -23 -31 -36 -28 -62 3 -29 7 -33 36 -36 17 -2 32 -7 32 -11 0 -12
-87 -82 -128 -103 -58 -29 -147 -24 -224 12 -35 17 -80 30 -101 30 -21 0 -56
9 -78 21 -55 27 -49 51 14 63 61 11 60 26 -2 26 -67 0 -81 -7 -81 -41 0 -41
27 -63 94 -78 32 -7 56 -14 54 -16 -5 -6 -332 -79 -358 -80 -14 -1 -36 -8 -50
-15 -31 -17 -118 -40 -150 -40 -36 0 -73 32 -72 63 0 15 7 43 17 63 22 47 15
112 -15 136 -12 10 -21 18 -19 18 2 1 162 41 354 90 193 48 356 89 363 89 6 1
12 -10 12 -23z m-978 -85 c11 -31 16 -65 13 -81 -6 -25 -14 -30 -85 -48 l-79
-19 -31 38 c-20 25 -29 46 -25 58 10 33 140 114 174 108 8 -1 23 -26 33 -56z
m168 -104 c0 -31 -22 -83 -47 -109 -40 -42 -83 -37 -109 13 -17 35 -39 37 -71
7 l-23 -21 -26 24 -25 24 143 36 c170 44 158 42 158 26z m86 -22 c16 -24 16
-37 -2 -122 -16 -79 32 -126 119 -116 63 8 61 -7 -9 -59 -65 -50 -131 -71
-204 -66 -55 4 -64 8 -141 71 -45 37 -89 67 -98 67 -27 0 -41 21 -41 60 0 22
-10 50 -26 73 l-26 38 42 -27 c38 -26 44 -27 77 -15 32 12 37 11 61 -12 38
-34 58 -39 96 -23 39 16 69 55 86 114 15 49 40 56 66 17z m-397 -159 c-29 -31
9 -86 59 -86 26 0 79 -48 66 -59 -5 -4 -55 -17 -111 -30 -108 -23 -120 -22
-174 21 -51 42 -66 124 -35 189 14 31 25 39 69 50 l52 15 42 -46 c25 -28 38
-49 32 -54z m1135 23 c60 -33 126 -41 197 -26 l36 7 7 -61 c9 -95 7 -215 -5
-265 -7 -28 -23 -54 -41 -69 -51 -43 -117 -30 -235 47 -43 28 -107 65 -143 82
-57 27 -77 31 -170 34 -95 3 -114 1 -200 -27 -52 -17 -129 -50 -170 -72 -161
-89 -163 -90 -210 -87 -61 4 -82 41 -88 154 -6 103 7 115 67 61 57 -51 124
-65 207 -42 81 22 166 76 224 143 l45 51 205 50 c113 27 208 49 211 50 3 0 31
-13 63 -30z"/>
<path d="M493 410 c-23 -14 -34 -29 -39 -56 -10 -57 12 -91 87 -134 68 -38 82
-63 37 -68 -19 -2 -30 3 -38 17 -8 16 -21 21 -50 21 l-40 0 0 -55 0 -55 40 0
c29 0 40 4 40 15 0 14 3 13 25 -1 39 -26 103 -13 139 27 24 27 27 38 23 71 -7
49 -28 73 -92 105 -65 33 -75 41 -68 59 8 20 40 17 60 -6 12 -13 30 -20 54
-20 l36 0 -1 48 c-2 47 -3 47 -39 50 -29 3 -37 0 -37 -13 0 -15 -2 -15 -22 -1
-30 22 -76 20 -115 -4z m27 -59 c0 -24 38 -65 81 -86 54 -27 69 -45 69 -81 0
-23 -6 -37 -20 -44 -19 -10 -20 -9 -14 15 9 36 -15 67 -79 103 -59 33 -70 50
-61 88 7 28 24 32 24 5z"/>
<path d="M745 353 l0 -73 38 0 c35 0 49 15 31 33 -10 10 -12 77 -2 77 4 0 8 6
8 14 0 9 -14 15 -38 18 l-38 3 1 -72z"/>
<path d="M984 421 c-2 -2 2 -13 8 -24 6 -11 8 -41 5 -69 l-6 -48 68 0 c67 0
68 0 63 25 -4 24 -32 36 -32 15 0 -5 -9 -10 -20 -10 -11 0 -20 7 -20 15 0 8 7
15 15 15 8 0 15 7 15 15 0 8 -7 15 -15 15 -8 0 -15 5 -15 11 0 7 12 9 34 5 28
-5 34 -3 39 13 4 18 -2 20 -65 23 -38 2 -71 1 -74 -1z"/>
<path d="M1168 419 c-31 -17 -22 -57 17 -80 19 -12 32 -25 29 -31 -3 -5 -16
-3 -30 6 -31 21 -34 20 -34 -8 0 -21 5 -24 44 -24 27 -1 49 4 56 13 19 23 4
61 -30 75 -16 7 -30 16 -30 21 0 12 27 11 35 -1 11 -18 35 -11 35 10 0 14 -7
20 -24 20 -13 0 -30 2 -38 5 -7 2 -21 0 -30 -6z"/>
<path d="M1320 423 l-35 -4 0 -69 0 -70 35 0 35 0 0 75 c1 41 1 74 0 73 0 -1
-16 -3 -35 -5z"/>
<path d="M840 401 c5 -11 10 -34 10 -51 0 -17 -5 -40 -10 -51 -10 -18 -7 -19
60 -19 l70 0 0 30 c0 20 -5 30 -15 30 -8 0 -15 -7 -15 -15 0 -8 -9 -15 -20
-15 -17 0 -20 7 -20 40 0 22 5 40 10 40 6 0 10 7 10 15 0 11 -12 15 -45 15
-42 0 -45 -2 -35 -19z"/>
<path d="M1403 398 c3 -12 -3 -39 -14 -61 -25 -54 -24 -57 12 -57 28 0 31 2
25 25 -5 20 -3 25 13 25 11 0 23 -4 26 -10 3 -5 1 -10 -4 -10 -6 0 -11 -7 -11
-15 0 -11 11 -15 40 -15 22 0 40 4 40 8 0 5 -9 26 -19 49 -11 22 -17 49 -14
61 5 20 2 22 -47 22 -49 0 -52 -2 -47 -22z m44 -50 c-16 -10 -21 -2 -13 19 6
15 9 15 16 3 6 -9 5 -17 -3 -22z"/>
<path d="M1333 240 c-45 -18 -57 -86 -23 -120 42 -42 140 -15 140 39 0 15 -7
18 -32 17 -28 -1 -56 -26 -29 -26 6 0 11 -5 11 -11 0 -6 -10 -9 -22 -7 -18 2
-24 11 -26 36 -4 37 19 53 49 34 28 -18 39 -14 39 13 0 19 -5 25 -22 25 -13 0
-32 2 -43 5 -11 2 -30 0 -42 -5z"/>
<path d="M828 169 c3 -52 1 -73 -8 -79 -22 -14 -3 -42 22 -35 35 11 48 34 48
89 0 28 3 61 6 74 6 20 3 22 -33 22 l-40 0 5 -71z"/>
<path d="M1027 188 c8 -76 17 -88 61 -88 49 0 62 14 62 67 0 24 5 43 10 43 6
0 10 7 10 15 0 10 -10 15 -29 15 -28 0 -29 -1 -27 -51 1 -34 -3 -53 -11 -56
-10 -3 -13 11 -13 51 l0 56 -35 0 -34 0 6 -52z"/>
</g>
</svg>
